<?xml version="1.0" encoding="utf-8"?>
<!-- Generator: Adobe Illustrator 15.1.0, SVG Export Plug-In . SVG Version: 6.00 Build 0)  -->
<!DOCTYPE svg PUBLIC "-//W3C//DTD SVG 1.1//EN" "http://www.w3.org/Graphics/SVG/1.1/DTD/svg11.dtd">
<svg version="1.1" id="Layer_1" xmlns="http://www.w3.org/2000/svg" xmlns:xlink="http://www.w3.org/1999/xlink" x="0px" y="0px"
	 width="68.02px" height="67.851px" viewBox="0 0 68.02 67.851" enable-background="new 0 0 68.02 67.851" xml:space="preserve">
<g>
	<g>
		<circle fill="#44C8F5" cx="33.987" cy="34.148" r="32.885"/>
		<circle fill="#3FC0EF" cx="34.106" cy="33.896" r="32.447"/>
		<circle fill="#39BAEA" cx="34.226" cy="33.644" r="32.009"/>
		<circle fill="#32B4E6" cx="34.345" cy="33.392" r="31.571"/>
		<circle fill="#2AAFE2" cx="34.464" cy="33.14" r="31.133"/>
		<circle fill="#21AADF" cx="34.584" cy="32.887" r="30.695"/>
		<circle fill="#16A5DB" cx="34.703" cy="32.635" r="30.257"/>
		<circle fill="#04A0D8" cx="34.823" cy="32.383" r="29.819"/>
		<circle fill="#009CD4" cx="34.942" cy="32.131" r="29.381"/>
		<circle fill="#0097D1" cx="35.061" cy="31.879" r="28.943"/>
		<circle fill="#0093CE" cx="35.181" cy="31.627" r="28.505"/>
		<circle fill="#008FCA" cx="35.3" cy="31.375" r="28.067"/>
		<circle fill="#008AC7" cx="35.42" cy="31.123" r="27.63"/>
		<circle fill="#0086C4" cx="35.539" cy="30.871" r="27.192"/>
		<circle fill="#0082C1" cx="35.658" cy="30.618" r="26.753"/>
		<circle fill="#007EBE" cx="35.778" cy="30.366" r="26.316"/>
		<circle fill="#007BBB" cx="35.897" cy="30.114" r="25.878"/>
		<circle fill="#0077B8" cx="36.017" cy="29.862" r="25.44"/>
		<circle fill="#0073B5" cx="36.136" cy="29.61" r="25.002"/>
		<circle fill="#006FB2" cx="36.255" cy="29.358" r="24.564"/>
		<circle fill="#006CAF" cx="36.375" cy="29.105" r="24.126"/>
		<circle fill="#0069AD" cx="36.494" cy="28.854" r="23.688"/>
	</g>
	<path fill="#FFFFFF" d="M52.45,10.808c1.38-0.265,3.088,2.811,3.088,4.762s-1.764,0.465-1.764,0.465l-1.949-3.346
		C51.825,12.688,51.335,11.227,52.45,10.808z"/>
	<path fill="#FFFFFF" d="M11.407,53.459c-1.279,0.579-3.656-2.018-4.109-3.916c-0.451-1.897,1.608-0.859,1.608-0.859l2.673,2.799
		C11.579,51.483,12.395,52.794,11.407,53.459z"/>
</g>
</svg>
